<svg id="logo" xmlns="http://www.w3.org/2000/svg" viewBox="0 0 178 88.678">
  <defs>
    <style>
      .cls-1 {
        fill: #fff;
      }
    </style>
  </defs>
  <path id="Path_372" data-name="Path 372" class="cls-1" d="M17.8,98.916H5.02V77.57H20.333V73.9H0v55.769H5.02V102.544H17.8Z" transform="translate(0 -41.201)"/>
  <rect id="Rectangle_438" data-name="Rectangle 438" class="cls-1" width="5.02" height="55.769" transform="translate(27.167 32.699)"/>
  <path id="Path_373" data-name="Path 373" class="cls-1" d="M114.66,73.9H91.5v3.8h9.2v51.972h5.02V77.7h8.943Z" transform="translate(-52.123 -41.201)"/>
  <path id="Path_374" data-name="Path 374" class="cls-1" d="M187.761,129.669V73.9h-4.345v44.083L164.728,73.9H161.1v55.769h4.345V85.121l18.772,44.547Z" transform="translate(-91.738 -41.201)"/>
  <path id="Path_375" data-name="Path 375" class="cls-1" d="M262.076,102.586V99H249.5V77.7h15.4V73.9H244.4v55.769h20.671V126H249.5V102.586Z" transform="translate(-139.256 -41.201)"/>
  <path id="Path_376" data-name="Path 376" class="cls-1" d="M324.066,112.168c0-4.683-2.447-8.817-7.256-12.234-5.864-4.219-8.859-8.015-8.859-11.263v-4.64c0-3.923,1.9-5.906,5.611-5.906h.042c3.754,0,5.611,2.025,5.611,5.906v5.357h4.809V84.031c0-7.129-3.417-10.631-10.462-10.631S303.1,76.859,303.1,84.031V88.84c0,4.809,2.447,9.028,7.256,12.487,5.864,4.218,8.859,8.1,8.859,11.643v5.99c0,3.923-1.9,5.906-5.611,5.906-3.754,0-5.653-1.983-5.653-5.906V113.6h-4.809v5.358c0,7.129,3.417,10.631,10.462,10.631s10.462-3.5,10.462-10.631Z" transform="translate(-172.178 -40.912)"/>
  <path id="Path_377" data-name="Path 377" class="cls-1" d="M384.566,112.168c0-4.683-2.447-8.817-7.256-12.234-5.864-4.219-8.859-8.015-8.859-11.263v-4.64c0-3.923,1.9-5.906,5.611-5.906h.042c3.754,0,5.611,2.025,5.611,5.906v5.357h4.809V84.031c0-7.129-3.417-10.631-10.462-10.631S363.6,76.859,363.6,84.031V88.84c0,4.809,2.447,9.028,7.256,12.487,5.864,4.218,8.859,8.1,8.859,11.643v5.99c0,3.923-1.9,5.906-5.611,5.906-3.754,0-5.653-1.983-5.653-5.906V113.6h-4.809v5.358c0,7.129,3.417,10.631,10.462,10.631s10.462-3.5,10.462-10.631Z" transform="translate(-207.157 -40.912)"/>
  <path id="Path_378" data-name="Path 378" class="cls-1" d="M0,26.036H3.206V15.321H13.921V12.115H3.206V4.606H15.1V1.4H0Z" transform="translate(0 -0.809)"/>
  <rect id="Rectangle_439" data-name="Rectangle 439" class="cls-1" width="3.206" height="24.636" transform="translate(20.671 0.591)"/>
  <path id="Path_379" data-name="Path 379" class="cls-1" d="M87.082,20.088,74.6,1.4h-3V26.036h3.206V7.306l12.445,18.73h3.037V1.4H87.082Z" transform="translate(-40.804 -0.809)"/>
  <path id="Path_380" data-name="Path 380" class="cls-1" d="M135.87,1.4H129.5V26.036h6.37a12.318,12.318,0,1,0,0-24.636Zm0,21.43h-3.164V4.606h3.164a9.112,9.112,0,0,1,0,18.224Z" transform="translate(-73.801 -0.809)"/>
  <path id="Path_381" data-name="Path 381" class="cls-1" d="M210.874,12.115,203.365,1.4H199.4l9.871,14.216v10.42h3.206V15.616L222.391,1.4h-3.965Z" transform="translate(-113.59 -0.809)"/>
  <path id="Path_382" data-name="Path 382" class="cls-1" d="M330.149,17.262a5.822,5.822,0,1,1-11.643,0V1.4H315.3V17.262a9.028,9.028,0,1,0,18.055,0V1.4h-3.206Z" transform="translate(-179.232 -0.809)"/>
  <path id="Path_383" data-name="Path 383" class="cls-1" d="M383,14.477A6.95,6.95,0,0,0,379.714,1.4H369.8V26.036h3.206V15.321H379.8l5.358,10.715h3.586Zm-10.04-9.871h6.75a3.754,3.754,0,1,1,0,7.509h-6.75Z" transform="translate(-210.741 -0.809)"/>
  <g id="Group_453" data-name="Group 453" transform="translate(111.374)">
    <g id="Group_452" data-name="Group 452">
      <g id="Group_451" data-name="Group 451">
        <path id="Path_384" data-name="Path 384" class="cls-1" d="M268.94,2.7a7.3,7.3,0,0,1,7.34,7.256c0,2.573-1.308,6.707-7.34,11.938-6.37-5.695-7.34-9.913-7.34-11.938A7.328,7.328,0,0,1,268.94,2.7m0-2.7A10.028,10.028,0,0,0,258.9,10c0,7.678,8.985,14.512,9.365,14.933a1.086,1.086,0,0,0,.675.3.966.966,0,0,0,.675-.3c.38-.422,9.365-6.918,9.365-14.933A10.028,10.028,0,0,0,268.94,0Z" transform="translate(-258.9)"/>
      </g>
    </g>
    <ellipse id="Ellipse_107" data-name="Ellipse 107" class="cls-1" cx="2.405" cy="2.405" rx="2.405" ry="2.405" transform="translate(7.164 7.279) rotate(-9.044)"/>
    <path id="Path_385" data-name="Path 385" class="cls-1" d="M276.572,41.832,272.1,36.137V34.872a4.472,4.472,0,0,1,8.943,0v.97l-3.628,5.484" transform="translate(-266.532 -17.576)"/>
  </g>
</svg>
