<svg xmlns="http://www.w3.org/2000/svg" xmlns:xlink="http://www.w3.org/1999/xlink" viewBox="0 0 20.244 20.242">
  <defs>
    <style>
      .cls-1 {
        fill: url(#linear-gradient);
      }
    </style>
    <linearGradient id="linear-gradient" x1="1" y1="0.5" x2="0" y2="0.5" gradientUnits="objectBoundingBox">
      <stop offset="0" stop-color="#ff7d1a"/>
      <stop offset="1" stop-color="#f27500"/>
    </linearGradient>
  </defs>
  <path id="call_icon" class="cls-1" d="M83.516,79.885a17,17,0,0,0-3.552-2.377c-1.065-.511-1.455-.5-2.208.042-.627.453-1.033.875-1.755.717a10.468,10.468,0,0,1-3.526-2.609,10.394,10.394,0,0,1-2.609-3.526c-.153-.727.269-1.128.717-1.755.543-.754.559-1.144.042-2.208a16.668,16.668,0,0,0-2.377-3.552c-.775-.775-.949-.606-1.375-.453a7.829,7.829,0,0,0-1.26.669,3.8,3.8,0,0,0-1.512,1.6c-.3.648-.648,1.855,1.123,5.006a27.935,27.935,0,0,0,4.912,6.551l.005.005.005.005A28.045,28.045,0,0,0,76.7,82.91c3.151,1.771,4.358,1.423,5.006,1.123a3.735,3.735,0,0,0,1.6-1.512,7.826,7.826,0,0,0,.669-1.26C84.122,80.834,84.3,80.66,83.516,79.885Z" transform="translate(-63.857 -64.035)"/>
</svg>
