<svg id="google_icon" xmlns="http://www.w3.org/2000/svg" viewBox="0 0 40 40">
  <defs>
    <style>
      .cls-1 {
        fill: #f3f3f3;
      }
    </style>
  </defs>
  <path id="Path_89" data-name="Path 89" class="cls-1" d="M17.3,11.9c-1.7-.1-2.9,1.7-2.6,3.9a4.172,4.172,0,0,0,3.7,3.9c1.7.1,2.7-1.4,2.4-3.7C20.5,13.8,19,11.9,17.3,11.9Z" transform="translate(-1.339 -1.136)"/>
  <path id="Path_90" data-name="Path 90" class="cls-1" d="M18,24.3c-2.6,0-4.7,1.6-4.7,3.5,0,2,1.9,3.6,4.4,3.6,3.6,0,4.9-1.5,4.9-3.5a1.7,1.7,0,0,0-.1-.7c-.3-1.1-1.4-1.7-2.8-2.7A8.807,8.807,0,0,0,18,24.3Z" transform="translate(-1.326 -2.276)"/>
  <path id="Path_91" data-name="Path 91" class="cls-1" d="M20,0A20,20,0,1,0,40,20,19.982,19.982,0,0,0,20,0Zm1.475,14.747a3.936,3.936,0,0,1-1.751,3.134c-1.014.737-1.2,1.106-1.2,1.751,0,.553,1.2,1.382,1.751,1.843,1.935,1.382,2.3,2.3,2.3,4.147,0,2.212-2.4,4.424-6.267,4.424-3.41,0-6.267-1.382-6.267-3.594,0-2.3,2.4-4.608,5.806-4.608h1.106a2.053,2.053,0,0,1-.829-1.567,2.189,2.189,0,0,1,.277-1.106h-.553a4.208,4.208,0,0,1-4.424-4.424c0-2.4,2.488-4.608,5.438-4.608h5.9l-1.29,1.382H19.908A3.392,3.392,0,0,1,21.475,14.747Zm8.479-.369H27.281v2.673H25.9V14.378H23.226V13H25.9V10.323h1.382V13h2.673Z"/>
</svg>
