<svg id="message_icon" xmlns="http://www.w3.org/2000/svg" xmlns:xlink="http://www.w3.org/1999/xlink" viewBox="0 0 24.19 16.748">
  <defs>
    <style>
      .cls-1 {
        fill: url(#linear-gradient);
      }
    </style>
    <linearGradient id="linear-gradient" x1="1" y1="0.5" x2="0" y2="0.5" gradientUnits="objectBoundingBox">
      <stop offset="0" stop-color="#ff7d1a"/>
      <stop offset="1" stop-color="#f27500"/>
    </linearGradient>
  </defs>
  <path id="Path_98" data-name="Path 98" class="cls-1" d="M71.993,146.721l-6.257,6.372a.112.112,0,0,0,0,.163l4.379,4.663a.754.754,0,0,1,0,1.07.758.758,0,0,1-1.07,0l-4.361-4.645a.119.119,0,0,0-.169,0l-1.064,1.081a4.682,4.682,0,0,1-3.338,1.407,4.776,4.776,0,0,1-3.408-1.448l-1.023-1.041a.119.119,0,0,0-.169,0l-4.361,4.645a.758.758,0,0,1-1.07,0,.754.754,0,0,1,0-1.07l4.379-4.663a.124.124,0,0,0,0-.163L48.2,146.721a.115.115,0,0,0-.2.081v12.75a1.866,1.866,0,0,0,1.861,1.861H70.33a1.866,1.866,0,0,0,1.861-1.861V146.8A.116.116,0,0,0,71.993,146.721Z" transform="translate(-48 -144.665)"/>
  <path id="Path_99" data-name="Path 99" class="cls-1" d="M71.491,122.664a3.158,3.158,0,0,0,2.273-.955l9.123-9.3A1.825,1.825,0,0,0,81.736,112H61.251a1.813,1.813,0,0,0-1.151.408l9.123,9.3A3.159,3.159,0,0,0,71.491,122.664Z" transform="translate(-59.395 -112)"/>
</svg>
