<svg id="Group_10" data-name="Group 10" xmlns="http://www.w3.org/2000/svg" viewBox="0 0 24.687 24.687">
  <defs>
    <style>
      .cls-1 {
        fill: #ffae74;
      }
    </style>
  </defs>
  <g id="Group_9" data-name="Group 9">
    <path id="Path_109" data-name="Path 109" class="cls-1" d="M12.344,0A12.344,12.344,0,1,0,24.687,12.344,12.383,12.383,0,0,0,12.344,0ZM19.45,19.13v-.481c0-1.656-1.924-2.3-2.992-2.725-.374-.16-1.069-.481-1.817-.855a.823.823,0,0,1-.481-.695l-.107-.8a3.364,3.364,0,0,0,1.122-2.031h.107a.465.465,0,0,0,.427-.321l.214-1.229a.421.421,0,0,0-.427-.427V9.511c0-.16.053-.267.053-.427V8.763a2.885,2.885,0,0,0-.214-1.336,3.747,3.747,0,0,0-.748-1.122c-.962-.908-2.084-1.282-3.046-.534a1.88,1.88,0,0,0-1.924.748,2.716,2.716,0,0,0-.588,1.176,4.153,4.153,0,0,0-.107.855,2.653,2.653,0,0,0,.107.962.381.381,0,0,0-.374.427l.214,1.229a.465.465,0,0,0,.427.321H9.4a3.833,3.833,0,0,0,1.176,2.084l-.053.748a.941.941,0,0,1-.481.695c-.695.321-1.389.695-1.817.855-.962.427-2.992,1.069-2.992,2.725v.374A9.693,9.693,0,0,1,2.618,12.29a9.832,9.832,0,1,1,19.664,0,10.328,10.328,0,0,1-2.832,6.84Zm0,0"/>
  </g>
</svg>
