<svg xmlns="http://www.w3.org/2000/svg" viewBox="0 0 26.523 26.492">
  <defs>
    <style>
      .cls-1 {
        fill: #fff;
      }
    </style>
  </defs>
  <g id="Search_icon_navigation" transform="translate(-49.085 -625.849)">
    <path id="Path_105" data-name="Path 105" class="cls-1" d="M11.089,10.805c-.208-.918-1.394-1.365-1.8-1.51a13.452,13.452,0,0,0-1.5-.289,1.528,1.528,0,0,1-.7-.32,6.08,6.08,0,0,1-.046-1.423,4.282,4.282,0,0,0,.329-.626A8.08,8.08,0,0,0,7.61,5.543s.237,0,.32-.416a4.09,4.09,0,0,0,.214-.967c-.017-.332-.2-.323-.2-.323a5.061,5.061,0,0,0,.2-1.481A2.378,2.378,0,0,0,5.555,0,2.368,2.368,0,0,0,2.965,2.356a5.279,5.279,0,0,0,.193,1.481s-.182-.009-.2.323a4.09,4.09,0,0,0,.214.967c.081.416.32.416.32.416a8.08,8.08,0,0,0,.242,1.094,4.282,4.282,0,0,0,.329.626,6.08,6.08,0,0,1-.046,1.423,1.528,1.528,0,0,1-.7.32,13.452,13.452,0,0,0-1.5.289c-.41.144-1.6.592-1.8,1.51a.231.231,0,0,0,.228.28h10.62A.23.23,0,0,0,11.089,10.805Z" transform="translate(56.642 631.884)"/>
    <path id="Path_133" data-name="Path 133" class="cls-1" d="M26.089,24.067,22.81,20.789a12.949,12.949,0,0,0,2-3.629h.035a12.791,12.791,0,1,0-15.271,8.1h.035c.123.035.245.053.368.088.105.018.21.053.316.07h.035a12.561,12.561,0,0,0,2.42.228,12.816,12.816,0,0,0,7.96-2.77l3.279,3.279a1.459,1.459,0,0,0,1.052.438,1.431,1.431,0,0,0,1.052-.438A1.471,1.471,0,0,0,26.089,24.067Zm-13.343-.333a11.45,11.45,0,0,1-2.051-.193h-.053c-.053-.018-.105-.018-.158-.035l-.088-.018-.088-.018-.21-.053h-.035A10.9,10.9,0,1,1,23.319,15.6L23,16.511a10.486,10.486,0,0,1-1.56,2.893,8.778,8.778,0,0,1-1,1.14,11.445,11.445,0,0,1-1.1.964A10.722,10.722,0,0,1,12.746,23.734Z" transform="translate(49.085 625.749)"/>
  </g>
</svg>
